<svg xmlns="http://www.w3.org/2000/svg" width="120" height="120" viewBox="0 0 120 120" fill="none">
    <g clip-path="url(#clip0_1370_135735)">
        <path
            d="M59.732 107.867C86.2944 107.867 107.828 86.3337 107.828 59.7713C107.828 33.2088 86.2944 11.6757 59.732 11.6757C33.1695 11.6757 11.6364 33.2088 11.6364 59.7713C11.6364 86.3337 33.1695 107.867 59.732 107.867Z"
            fill="#F4F4F5" />
        <g filter="url(#filter0_d_1370_135735)">
            <path
                d="M87.3068 39.2505H32.1572C30.3863 39.2505 28.9508 40.686 28.9508 42.4568V109.791C28.9508 111.562 30.3863 112.997 32.1572 112.997H87.3068C89.0777 112.997 90.5132 111.562 90.5132 109.791V42.4568C90.5132 40.686 89.0777 39.2505 87.3068 39.2505Z"
                fill="white" />
        </g>
        <path
            d="M53.3193 48.8696H36.6461C35.5836 48.8696 34.7223 49.7309 34.7223 50.7934C34.7223 51.8559 35.5836 52.7172 36.6461 52.7172H53.3193C54.3818 52.7172 55.2431 51.8559 55.2431 50.7934C55.2431 49.7309 54.3818 48.8696 53.3193 48.8696Z"
            fill="#DBEAFE" />
        <path
            d="M64.8622 57.2062H36.6461C35.5836 57.2062 34.7223 58.0675 34.7223 59.13C34.7223 60.1925 35.5836 61.0538 36.6461 61.0538H64.8622C65.9247 61.0538 66.786 60.1925 66.786 59.13C66.786 58.0675 65.9247 57.2062 64.8622 57.2062Z"
            fill="#EFF6FF" />
        <path
            d="M53.3193 66.184H36.6461C35.5836 66.184 34.7223 67.0453 34.7223 68.1078C34.7223 69.1703 35.5836 70.0317 36.6461 70.0317H53.3193C54.3818 70.0317 55.2431 69.1703 55.2431 68.1078C55.2431 67.0453 54.3818 66.184 53.3193 66.184Z"
            fill="#DBEAFE" />
        <path
            d="M64.8622 74.5206H36.6461C35.5836 74.5206 34.7223 75.3819 34.7223 76.4444C34.7223 77.5069 35.5836 78.3682 36.6461 78.3682H64.8622C65.9247 78.3682 66.786 77.5069 66.786 76.4444C66.786 75.3819 65.9247 74.5206 64.8622 74.5206Z"
            fill="#EFF6FF" />
        <path
            d="M53.3193 83.4984H36.6461C35.5836 83.4984 34.7223 84.3598 34.7223 85.4223C34.7223 86.4848 35.5836 87.3461 36.6461 87.3461H53.3193C54.3818 87.3461 55.2431 86.4848 55.2431 85.4223C55.2431 84.3598 54.3818 83.4984 53.3193 83.4984Z"
            fill="#DBEAFE" />
        <path
            d="M64.8622 91.835H36.6461C35.5836 91.835 34.7223 92.6963 34.7223 93.7588C34.7223 94.8213 35.5836 95.6827 36.6461 95.6827H64.8622C65.9247 95.6827 66.786 94.8213 66.786 93.7588C66.786 92.6963 65.9247 91.835 64.8622 91.835Z"
            fill="#EFF6FF" />
        <g filter="url(#filter1_d_1370_135735)">
            <path
                d="M87.3068 6.54546H32.1572C30.3863 6.54546 28.9508 7.981 28.9508 9.75183V28.9901C28.9508 30.7609 30.3863 32.1964 32.1572 32.1964H87.3068C89.0777 32.1964 90.5132 30.7609 90.5132 28.9901V9.75183C90.5132 7.981 89.0777 6.54546 87.3068 6.54546Z"
                fill="#3B82F6" />
        </g>
        <path
            d="M53.3193 13.5995H36.6461C35.5836 13.5995 34.7223 14.4608 34.7223 15.5233C34.7223 16.5858 35.5836 17.4471 36.6461 17.4471H53.3193C54.3818 17.4471 55.2431 16.5858 55.2431 15.5233C55.2431 14.4608 54.3818 13.5995 53.3193 13.5995Z"
            fill="#DBEAFE" />
        <path
            d="M64.8622 21.9361H36.6461C35.5836 21.9361 34.7223 22.7974 34.7223 23.8599C34.7223 24.9224 35.5836 25.7837 36.6461 25.7837H64.8622C65.9247 25.7837 66.786 24.9224 66.786 23.8599C66.786 22.7974 65.9247 21.9361 64.8622 21.9361Z"
            fill="white" />
    </g>
    <defs>
        <filter id="filter0_d_1370_135735" x="22.9508" y="30.2505" width="73.5624" height="85.7466"
            filterUnits="userSpaceOnUse" color-interpolation-filters="sRGB">
            <feFlood flood-opacity="0" result="BackgroundImageFix" />
            <feColorMatrix in="SourceAlpha" type="matrix"
                values="0 0 0 0 0 0 0 0 0 0 0 0 0 0 0 0 0 0 127 0" result="hardAlpha" />
            <feOffset dy="-3" />
            <feGaussianBlur stdDeviation="3" />
            <feColorMatrix type="matrix"
                values="0 0 0 0 0.788235 0 0 0 0 0.803922 0 0 0 0 0.85098 0 0 0 0.349 0" />
            <feBlend mode="normal" in2="BackgroundImageFix" result="effect1_dropShadow_1370_135735" />
            <feBlend mode="normal" in="SourceGraphic" in2="effect1_dropShadow_1370_135735"
                result="shape" />
        </filter>
        <filter id="filter1_d_1370_135735" x="22.9508" y="-2.45454" width="73.5624" height="37.651"
            filterUnits="userSpaceOnUse" color-interpolation-filters="sRGB">
            <feFlood flood-opacity="0" result="BackgroundImageFix" />
            <feColorMatrix in="SourceAlpha" type="matrix"
                values="0 0 0 0 0 0 0 0 0 0 0 0 0 0 0 0 0 0 127 0" result="hardAlpha" />
            <feOffset dy="-3" />
            <feGaussianBlur stdDeviation="3" />
            <feColorMatrix type="matrix"
                values="0 0 0 0 0.788235 0 0 0 0 0.803922 0 0 0 0 0.85098 0 0 0 0.349 0" />
            <feBlend mode="normal" in2="BackgroundImageFix" result="effect1_dropShadow_1370_135735" />
            <feBlend mode="normal" in="SourceGraphic" in2="effect1_dropShadow_1370_135735"
                result="shape" />
        </filter>
        <clipPath id="clip0_1370_135735">
            <rect width="120" height="120" fill="white" />
        </clipPath>
    </defs>
</svg>